<svg width="36" height="36" viewBox="0 0 36 36" fill="none" xmlns="http://www.w3.org/2000/svg">
<path d="M22.128 16.752L17.3325 13.554C17.1064 13.4031 16.8435 13.3165 16.572 13.3035C16.3005 13.2904 16.0306 13.3514 15.791 13.4799C15.5515 13.6084 15.3514 13.7995 15.212 14.0329C15.0727 14.2663 14.9994 14.5332 15 14.805V21.1995C15 21.4711 15.0736 21.7375 15.2132 21.9705C15.3527 22.2035 15.5529 22.3942 15.7924 22.5223C16.0318 22.6504 16.3015 22.7111 16.5728 22.6979C16.844 22.6848 17.1066 22.5982 17.3325 22.4475L22.128 19.2495C22.3334 19.1125 22.5019 18.9269 22.6184 18.7092C22.7349 18.4915 22.7958 18.2484 22.7958 18.0015C22.7958 17.7546 22.7349 17.5115 22.6184 17.2938C22.5019 17.0761 22.3334 16.889 22.128 16.752Z" stroke="#FC653C" stroke-width="2" stroke-linecap="round" stroke-linejoin="round"/>
<path d="M31.5 18C31.5 19.7728 31.1508 21.5283 30.4724 23.1662C29.7939 24.8041 28.7995 26.2923 27.5459 27.5459C26.2923 28.7995 24.8041 29.7939 23.1662 30.4724C21.5283 31.1508 19.7728 31.5 18 31.5C16.2272 31.5 14.4717 31.1508 12.8338 30.4724C11.1959 29.7939 9.70765 28.7995 8.45406 27.5459C7.20047 26.2923 6.20606 24.8041 5.52763 23.1662C4.84919 21.5283 4.5 19.7728 4.5 18C4.5 14.4196 5.92232 10.9858 8.45406 8.45406C10.9858 5.92232 14.4196 4.5 18 4.5C21.5804 4.5 25.0142 5.92232 27.5459 8.45406C30.0777 10.9858 31.5 14.4196 31.5 18Z" stroke="#FC653C" stroke-width="2" stroke-linecap="round" stroke-linejoin="round"/>
</svg>
