<svg width="157" height="23" viewBox="0 0 157 23" fill="none" xmlns="http://www.w3.org/2000/svg">
<path d="M11.648 22L14.432 10.768L15.584 3.824L16.736 10.768L19.488 22H25.664L30.848 0.559999H25.6L23.296 12.272L22.464 18.768L21.376 12.784L18.624 0.559999H12.576L9.792 12.784L8.672 18.768L7.872 12.272L5.6 0.559999H0.32L5.472 22H11.648ZM37.3323 22V13.328C37.3323 10.768 38.0363 9.552 40.2123 9.552C42.2923 9.552 42.8043 10.736 42.8043 12.656V22H47.3803V11.056C47.3803 7.824 45.5563 6 42.5803 6C39.3483 6 37.8443 8.304 37.3323 10.864V0.559999H32.7563V22H37.3323ZM55.0823 4.464V0.559999H50.5063V4.464H55.0823ZM55.0823 22V6.32H50.5063V22H55.0823ZM64.5268 22.32C66.9268 22.32 68.5268 21.2 69.1988 20.336L67.8868 16.592C67.4068 17.456 66.5428 18.256 65.5508 18.256C64.6548 18.256 64.0148 17.808 64.0148 16.528V9.808H68.3668V6.32H64.0148V2.064L59.4388 4.464V6.32H57.1028V9.808H59.4388V17.36C59.4388 20.272 61.0708 22.32 64.5268 22.32ZM77.6468 22.32C81.1668 22.32 83.2788 20.784 84.4628 19.088L81.6788 16.304C81.1028 17.648 79.9188 18.608 77.7108 18.608C75.6628 18.608 74.1908 17.552 73.9028 15.344H84.5908C84.6868 14.992 84.7508 14.096 84.7508 13.424C84.7508 9.328 82.2548 6 77.2628 6C72.6548 6 69.6148 9.328 69.6148 14.16C69.6148 18.992 72.6548 22.32 77.6468 22.32ZM77.2948 9.52C79.3428 9.52 80.4628 10.64 80.6228 12.72H73.9028C74.1268 10.608 75.3428 9.52 77.2948 9.52ZM94.8298 22.32C98.5738 22.32 101.166 20.272 102.126 17.584L98.3178 15.376C97.9338 17.328 96.9418 18.512 94.9898 18.512C92.9738 18.512 91.6298 17.04 91.6298 14.16C91.6298 11.28 92.9738 9.808 94.9898 9.808C96.9098 9.808 97.9338 10.992 98.3178 12.944L102.126 10.736C101.166 8.048 98.5738 6 94.8298 6C89.9978 6 86.9578 9.392 86.9578 14.16C86.9578 18.96 89.9978 22.32 94.8298 22.32ZM108.52 22V13.712C108.52 11.12 109.992 9.424 111.56 9.424C112.552 9.424 112.968 10.096 112.968 10.992C112.968 11.888 112.424 13.008 111.848 13.584H116.264C116.648 12.976 117.16 11.632 117.16 9.936C117.16 7.472 115.88 6 113.576 6C110.568 6 109.032 8.624 108.52 11.248V6.32H103.944V22H108.52ZM125.859 22.32C130.755 22.32 133.859 18.96 133.859 14.16C133.859 9.392 130.755 6 125.859 6C121.091 6 118.019 9.392 118.019 14.16C118.019 18.96 121.091 22.32 125.859 22.32ZM125.923 18.608C124.003 18.608 122.659 17.36 122.659 14.16C122.659 10.928 124.003 9.712 125.923 9.712C127.875 9.712 129.219 10.928 129.219 14.16C129.219 17.36 127.875 18.608 125.923 18.608ZM141.733 22V9.808H146.245V17.36C146.245 20.272 147.845 22.32 151.301 22.32C153.701 22.32 155.333 21.2 156.005 20.336L154.661 16.592C154.213 17.456 153.317 18.256 152.357 18.256C151.429 18.256 150.821 17.808 150.821 16.528V9.808H155.141V6.32H150.821V2.064L146.245 4.464V6.32H141.733V5.424C141.733 4.304 142.149 3.92 142.917 3.92C143.557 3.92 144.165 4.24 144.613 4.656L146.181 1.456C145.477 0.879999 144.165 0.24 142.373 0.24C139.205 0.24 137.157 2.064 137.157 5.296V6.32H134.981V9.808H137.157V22H141.733Z" fill="url(#paint0_linear_219_122)"/>
<defs>
<linearGradient id="paint0_linear_219_122" x1="-3" y1="13" x2="167" y2="13" gradientUnits="userSpaceOnUse">
<stop stop-color="#26100A"/>
<stop offset="1" stop-color="#BC705B"/>
</linearGradient>
</defs>
</svg>
